# xmcd
#
# Track frame offsets:
#	150
#	7473
#	23466
#	41955
#	50154
#	61729
#	78613
#	93010
#	104492
#	117437
#	131425
#
# Disc length: 1977 seconds
#
# Revision: 1
# Processed by: cddbd v1.4PL0 Copyright (c) Steve Scherf et al.
# Submitted via: audiograbber 1.82.02
#
DISCID=9207b70b
DTITLE=Jason Ringenberg - A Day at the Farm With Farmer Jason
DYEAR=2003
DGENRE=Children's
TTITLE0=Get Up Up Up!
TTITLE1=A Guitar Pickin' Chicken
TTITLE2=Whoa There Pony!
TTITLE3=The Tractor Goes Chug Chug Chug
TTITLE4=I'm Just an Old Cow
TTITLE5=He's a Hog Hog Hog
TTITLE6=The Doggie Dance
TTITLE7=Little Kitty
TTITLE8=Corny Corn
TTITLE9=Hey Little Lamb
TTITLE10=Sundown on the Farm
EXTD=
EXTT0=
EXTT1=
EXTT2=
EXTT3=
EXTT4=
EXTT5=
EXTT6=
EXTT7=
EXTT8=
EXTT9=
EXTT10=
PLAYORDER=
